<?xml version="1.0" encoding="utf-8"?>
<!-- Generator: Adobe Illustrator 22.0.1, SVG Export Plug-In . SVG Version: 6.00 Build 0)  -->
<svg version="1.1" id="Layer_3" xmlns="http://www.w3.org/2000/svg" xmlns:xlink="http://www.w3.org/1999/xlink" x="0px" y="0px"
	 viewBox="0 0 470.5 330.5" style="enable-background:new 0 0 470.5 330.5;" xml:space="preserve">
<style type="text/css">
	.st0{fill:#EE7800;}
	.st1{fill:#595857;}
	.st2{fill:#FFFFFF;}
</style>
<polygon class="st0" points="253.6,147.9 253.6,165.1 212.9,165.1 212.9,261.1 193.9,261.1 193.9,165.1 159.4,165.1 172.9,147.9 "/>
<path class="st0" d="M401.6,166.1c-3.2,0.5-6.7,1.7-10.4,3.4c-3.7,1.7-6.9,3.9-9.7,6.6c-7.6,7.1-11.4,16.3-11.4,27.7
	c0,11.6,3.7,21.1,11.2,28.7c2.3,2.3,4.9,4.3,7.7,5.9c2.7,1.5,6.2,2.8,10.4,3.9c4.2,1,10.1,1.5,17.9,1.5h19.6V261h-18.5
	c-9.9,0-16.6-0.3-20.1-0.8c-3.6-0.6-7.5-1.7-11.7-3.4c-7.3-2.8-13.7-6.8-19.2-12.2c-10.8-10.5-16.9-24.9-16.9-39.9
	c0-10.6,2.6-20.3,7.9-29.3c5.3-8.9,12.4-15.7,21.4-20.4s21.1-6.9,36.2-6.9h20.8v17.2h-19.1C410.3,165.3,404.9,165.6,401.6,166.1"/>
<polygon class="st1" points="94.4,261.1 94.4,212.6 55.1,212.6 55.1,261.1 36.2,261.1 36.2,148 55.1,148 55.1,195.4 94.4,195.4 
	94.4,148 113.2,148 113.2,261.1 "/>
<path class="st0" d="M252.5,147.9h38.6c15.1,0,27.2,2.3,36.2,6.9c9,4.6,16.1,11.4,21.4,20.3c5.3,9,7.9,18.7,7.9,29.3
	c0,7.6-1.5,14.8-4.4,21.7c-2.9,6.9-7.1,13-12.5,18.2c-5.5,5.4-11.9,9.5-19.2,12.2c-4.3,1.7-8.2,2.8-11.7,3.4
	c-3.5,0.5-10.2,0.8-20.1,0.8h-36.4V147.9H252.5z M271.4,165.1v78.5h18.5c7.8,0,13.8-0.5,17.9-1.5c4.3-1.1,7.7-2.4,10.5-3.9
	c2.8-1.6,5.4-3.6,7.7-5.9c7.4-7.5,11.2-17.1,11.2-28.7c0-11.4-3.8-20.6-11.5-27.7c-2.8-2.7-6-4.9-9.7-6.6
	c-9.2-4.3-16.5-4.2-26.5-4.3h-18.1V165.1z"/>
<polygon class="st1" points="106.6,204.1 152.9,147.9 176,147.9 131.6,203.8 177.4,261.1 153.7,261.1 "/>
<path class="st1" d="M423.7,315.6c0,3.3-2.6,5.9-5.8,6.1h-21.1v-16.6h27v10.5H423.7z M418,313.8v-3.3h-15.6v5.7h13.1
	C416.9,316.2,418,315.1,418,313.8 M429.1,279.9h-37.4v5.4h34.9c1.3,0,2.4-1.1,2.4-2.4L429.1,279.9z M391.7,290.8v4.7h45
	c-0.1,18.2-1.3,28.6-3.6,31.2c-1.2,2.3-5.3,3.5-13.6,3.4v-5.9c0,0,3.6,0,4.9,0c1.9,0,3.4-0.8,4.4-2.3c0.9-1.5,1.5-8.6,1.7-21.1h-39
	c-0.2,3.7-0.5,7.6-1.1,11.5c-1.1,6.1-2.8,12.2-5.3,18.2l-4.9-4.5c2.4-4.9,4-10,4.9-15.3c0.7-5.5,1-10.6,1-15.3v-20.8h48.7v10.2
	c0,3.4-2.8,6.1-6.1,6.1h-37V290.8z"/>
<path class="st1" d="M318.3,300.2c0,3.3-2.6,6-5.9,6.1h-6.2l-0.6,4.9h13.3c-0.2,7.8-0.8,12.8-1.8,14.9c-1.1,2.4-3.6,3.7-7.5,3.7
	h-10.8v-5.5c0,0,8.6,0,11,0c1.1,0,1.9-0.5,2.5-1.5c0.5-1.2,0.7-3.5,0.8-7H299l1.7-14.4h9.3c1.3-0.1,2.3-1.1,2.3-2.4v-2.5h-11.6v-2.6
	c-1.6,0.5-3.2,1.1-4.9,1.6l-3-5.7c3.7-0.8,6.9-1.6,9.6-2.5c-1.4-1.4-2.9-2.9-4.7-4.5l4.2-2.7c2.6,1.9,4.7,3.6,6.5,5l1.1-0.6
	c3-1.4,5.4-3.1,7.2-5.4h-17.3v-5h24c1.4,1.6,3,3,5.3,4.6c1.1-0.7,2.2-1.5,3.3-2.5c1.2-1.1,2.4-2.5,3.6-4.3l4.7,2.7
	c-1.5,2.3-2.9,4.1-4.2,5.3c-0.7,0.7-1.4,1.3-2.2,2c1.1,0.6,2.4,1.3,3.7,1.9c1.3-0.8,2.5-1.7,3.5-2.8c1.3-1.3,2.6-2.9,3.9-4.9
	l4.7,2.7c-1.6,2.5-3.1,4.5-4.5,5.8c-0.6,0.6-1.2,1.2-1.8,1.7c2.9,1.1,6,2.3,9.3,3.3l-3.5,4.9c-2.6-0.9-5-1.8-7.2-2.7v6.5
	c0,1.3,0.7,2,2,2h5.7v4.9h-6.9c-2.1,0-3.7-0.5-4.6-1.4c-1.1-0.9-1.6-2.4-1.6-4.6v-3h-5.9c-0.2,2.4-0.6,4.1-1.2,5.2
	c-0.7,1.4-2.6,3-5.8,4.9l-4.2-3.4c2.6-1.7,4.3-3.1,4.9-4.1c0.5-1,0.8-3.4,0.8-7.3h16.1c-3.5-1.4-6.4-2.9-8.9-4.3
	c-4-2.2-7.4-4.5-10.1-7.1c-1.6,2.6-3.7,4.7-6.1,6.4c-1.9,1.5-5.2,3.2-9.8,5h11.9V300.2z M322.8,307.3h22.5v4.2
	c-1.9,3.8-4.3,7.1-7.5,9.9c3.5,1.4,8.2,2.7,13.9,3.7l-3.5,4.9c-6.6-1.5-11.6-3.2-15-4.9c-3.4,2.3-7.2,4-11.2,5.1l-2.5-5
	c3.3-0.7,6.2-1.7,8.6-3.1c-2.7-1.8-5-3.9-6.9-6.3l4.7-2.7c1.9,2.2,4.2,4.1,6.8,5.7c2-1.9,3.8-4.1,5.4-6.7h-15.3V307.3z"/>
<path class="st1" d="M214.3,293.7h45v21.1c0,3.4-2.8,6.1-6.1,6.1h-38.9L214.3,293.7L214.3,293.7z M253.4,314.2v-1.5h-33.1v3.7h30.8
	C252.3,316.4,253.3,315.5,253.4,314.2 M220.3,308.8h33.1v-3.5h-33.1L220.3,308.8L220.3,308.8z M220.3,301.6h33.1v-3.4h-33.1
	L220.3,301.6L220.3,301.6z M227.4,285.2c-0.5-1.2-1.1-2.3-1.6-3.4l4.7-1.5c1.7,3,3.3,6.5,4.7,10.4l-5.2,1.2
	c-0.3-0.8-0.5-1.6-0.8-2.3c-5.7,1.4-11.8,2.6-19.2,3.9v-18.3c6.5-0.4,14.7-1.7,22-3.5l2,4.9c-3.5,0.9-10,1.8-18,2.9v8
	C219.3,286.9,224.1,286,227.4,285.2 M236.4,274.4h27.2c-0.1,9.4-1,14-2.8,15.3c-1,1.2-4.2,1.8-9.8,1.8l-0.9-5.5
	c1.6,0.3,2.9,0.5,3.9,0.5c1.2,0,2.2-0.3,2.8-0.8s1-2.9,1.1-7.2h-8c-0.4,3.5-1.3,6.1-2.6,7.9c-1.7,2.3-4.6,4.3-8.7,6l-3.7-4.7
	c3.6-1.2,6.1-2.6,7.4-4c1.1-1.1,1.8-2.8,2.2-5.2h-8.1L236.4,274.4L236.4,274.4z M228.7,321.4l2.9,3.9c-3.4,1.3-6.4,2.3-9.1,2.9
	c-3.1,0.7-7,1.4-11.7,2.2l-3-5.2c4.6-0.5,8.7-1,12.2-1.6C223.3,322.9,226.2,322.2,228.7,321.4 M243.5,321.4c7,0.8,14.2,2.1,21.8,3.9
	l-2,5.2c-7-2.1-14.3-3.6-22-4.7L243.5,321.4z"/>
<path class="st1" d="M127.7,272.9c3.5,1.6,6.7,3.5,9.6,5.7l-3.7,5.7c-3-2.8-6-5-9.1-6.7L127.7,272.9z M125.2,287.8
	c3.7,1.7,7.1,3.8,10.2,6.1l-3.7,5.7c-3.1-3-6.3-5.4-9.6-7.1L125.2,287.8z M130.6,303.1l3,2.2c4.5-2.3,7.6-4.4,9.5-6.3
	c1-1,1.9-2.1,2.8-3.4h-9.8v-5.2h9.2v-6.2h-7.7V279h7.7v-6.5h6v6.5h11.6v-6.5h5.7v6.5h9.6v5.2h-9.6v6.2h11.1v5.2h-11.8
	c1.4,1.8,2.8,3.1,4.1,4c2,1.6,4.9,3.1,8.5,4.6l-2.5,5.4c-3.8-1.9-6.7-3.6-8.9-5.3v6.6c0,3.4-2.8,6.1-6.1,6.1h-14.1v5.4
	c0,1.3,0.7,2,2.2,2h17.5c1.2,0,2.1-0.3,2.7-0.8c0.6-0.6,1.1-1.5,1.3-6.3h5.4c-0.5,6.1-1.4,9.6-2.7,10.7c-1.1,1.1-3.1,1.6-6,1.6
	h-20.5c-1.8,0-3.2-0.5-4.2-1.5s-1.5-2.3-1.5-4v-17.8c-1.9,1.5-4.2,3-6.7,4.5l-1.3-2.2c-2.4,8.4-5,15.4-7.9,21.7l-4.7-4.9
	C125.1,320.3,127.8,312.8,130.6,303.1 M148.6,301.1h16.7c-1.3-1.4-2.6-3.2-3.9-5.4H152C150.9,297.8,149.8,299.6,148.6,301.1
	 M151.2,290.5h11.6v-6.2h-11.6V290.5z M148.7,306.1v6.2h12.1c1.3,0,2.4-1.1,2.4-2.4v-3.7h-14.5V306.1z"/>
<path class="st1" d="M86.1,273.8l3,5.2c-6,1-13,1.8-21,2.3v6.9h26.2v5.2H75.1c2.3,2,4.5,3.8,6.4,4.8c3.1,1.7,7.5,3.3,13,4.9
	l-2.7,5.7c-2-0.7-3.8-1.4-5.4-2.2v17.8c0,3.4-2.8,6.1-6.1,6.1H44.6v-23.8c-1.6,0.8-3.4,1.5-5.2,2.3l-3.4-5.7
	c7.1-2.3,12-4.5,14.9-6.4c1.5-0.9,2.8-2.3,4.1-3.6H36.6v-5.1h25.5v-6.6c-6.2,0.2-12.9,0.4-20.1,0.4l-1.7-5.4
	C58.3,276.5,73.5,275.6,86.1,273.8 M50.2,325.3h28.2c1.2-0.1,2.2-1,2.3-2.2v-2.9H50.2V325.3z M50.2,314.9h30.5v-4.4H50.2V314.9z
	 M47.8,305H62v-11.3h-0.5c-1.8,2.6-3.9,4.8-6.3,6.7C53.3,301.9,50.8,303.5,47.8,305 M68,305h14.9c-2.6-1.2-4.7-2.4-6.3-3.6
	c-2.6-1.6-5.2-4.2-8-7.7H68V305z"/>
<rect x="36.1" class="st2" width="400.5" height="125"/>
<path class="st0" d="M36.1,125v-16.8c0,0-4.7,1.4-12.5,1.4c-8.1,0.1-17.9-2.8-23.6-15.1c13.2,8.7,26.5,10.2,45.3,10
	c41.9-0.4,65.8-16.9,106-16.7c47.4,0.3,76.6,20.9,92.3,37.1H36.1V125z"/>
<path class="st0" d="M36.1,100.8V0h294.7c-52.9,6.5-84,45.8-99.3,88.2l15.9,23.8c29.1-42,56.2-73.4,123.6-74.2
	c42.8-0.5,100.2,16.8,99.5,70.6c-8.1-19.6-14.7-33.8-33.8-49.1v65.8H249.1c0,0-36.8-66.3-99.6-67.1C104.1,57.3,70.4,97.8,36.1,100.8
	"/>
<path class="st0" d="M436.6,0v48c0,0-33.2-43-84.1-48H436.6z"/>
</svg>
